<svg width="76" height="22" viewBox="0 0 76 22" fill="none" xmlns="http://www.w3.org/2000/svg">
<path fill-rule="evenodd" clip-rule="evenodd" d="M38.6589 0.0160934C39.1872 0.0366985 39.6682 0.23663 40.1138 0.506589C40.4466 0.708303 40.754 0.951691 41.0816 1.16247C41.1711 1.22002 41.2928 1.25248 41.4001 1.25333C42.5032 1.26247 43.6064 1.25589 44.7095 1.26805C45.2754 1.27425 45.8408 1.31213 46.4066 1.3301C46.6443 1.33761 46.7484 1.51113 46.8365 1.68062C47.2867 2.54565 47.7265 3.4161 48.1689 4.28516C48.2923 4.52746 48.4087 4.77348 48.5378 5.01269C48.5631 5.05955 48.6297 5.08953 48.6833 5.11378C48.7155 5.12826 48.7595 5.11657 48.7982 5.11657H65.5034V4.89781C65.5037 3.83471 65.4975 2.77145 65.5081 1.70843C65.5117 1.3507 65.5436 0.991507 65.5896 0.636417C65.6466 0.196272 66.1622 -0.010399 66.6057 0.190695C66.9401 0.342213 66.9574 0.646255 66.9616 0.921791C66.9816 2.23595 66.9748 3.5505 66.9775 4.86481V5.10131C67.375 5.15971 67.7609 5.20263 68.141 5.27568C68.6355 5.37072 69.1218 5.51387 69.5079 5.85316C69.7913 6.10221 69.9682 6.43034 70 6.8175C70.0278 7.15454 70.0862 7.4953 70.061 7.82909C70.0242 8.31517 69.9357 8.79846 69.8493 9.27943C69.7204 9.99611 69.4284 10.6477 68.9865 11.2255C68.6137 11.7128 68.1454 12.0607 67.5411 12.2432C66.7659 12.4773 66.216 12.0435 65.8236 11.4747C65.4434 10.9239 65.2312 10.2891 64.9538 9.68603C64.5593 8.82852 64.1201 7.99153 63.6988 7.14633C63.6827 7.11395 63.655 7.08707 63.6317 7.05856C63.2933 6.6453 63.2933 6.64499 62.7436 6.64538C57.2084 6.64886 51.6731 6.65304 46.1379 6.65335C45.9594 6.65335 45.8687 6.69038 45.8218 6.88838C45.7177 7.32721 45.5723 7.75604 45.4472 8.18999C45.3219 8.62463 45.1982 9.05982 45.0788 9.49617C44.9957 9.79959 44.8926 10.1019 44.8552 10.4115C44.8383 10.5514 44.9604 10.7078 45.0183 10.8572C45.2433 11.4382 45.4916 12.0118 45.6854 12.6031C45.844 13.0871 45.9915 13.5866 46.047 14.0899C46.1249 14.7963 46.1338 15.5126 46.1306 16.2246C46.129 16.5909 46.0615 16.9624 45.9801 17.3216C45.8844 17.744 45.7688 18.1662 45.6121 18.5692C45.4029 19.1072 45.1731 19.641 44.9023 20.15C44.5894 20.7378 44.2269 21.2999 43.7542 21.78C43.747 21.7872 43.7505 21.8048 43.749 21.8176H43.4393C43.3987 21.3817 43.0607 21 43.5 20.5C44.5607 19 45.1053 17.6139 45.1143 16.1849C45.1214 15.0675 44.6062 10.8551 43.5 10.8572C39.2883 10.8652 36.188 10.8567 31.9763 10.8572C31.9063 10.8572 31.6184 11.1925 31.5 11.5C30.8456 13.1996 30.7388 14.4251 30.7376 16.2411C30.7364 18.0571 31.33 18.7188 31.9763 19.9581C32.1067 20.3562 32.4012 20.5936 32.5 21C32.551 21.2095 32.5252 21.5933 32.3678 21.8176H32.0581C31.9267 21.6524 31.7769 21.4987 31.6674 21.3201C31.3245 20.7611 30.9707 20.206 30.6716 19.6237C30.4304 19.1543 30.2439 18.654 30.0682 18.1551C29.9495 17.8179 29.9016 17.4564 29.8043 17.1107C29.6151 16.4383 29.6313 15.7504 29.6681 15.0675C29.6939 14.588 29.7923 14.111 29.8787 13.6366C29.9442 13.2771 30.021 12.9169 30.1306 12.5689C30.2748 12.1112 30.4524 11.6636 30.623 11.2145C30.7267 10.9418 30.8452 10.6746 30.9551 10.4042C30.9642 10.382 30.9649 10.3517 30.9583 10.3283C30.8389 9.90533 30.7114 9.48447 30.5986 9.05982C30.4822 8.62153 30.3815 8.17914 30.2705 7.73946C30.1951 7.44077 30.1187 7.14207 30.0325 6.84639C30.0003 6.73601 29.9395 6.66412 29.7893 6.66428C24.5896 6.6683 19.3899 6.66172 14.1902 6.67171C13.6941 6.67264 13.1935 6.74476 12.7036 6.83175C12.2425 6.91355 11.9564 7.2279 11.7729 7.65859C11.4831 8.33872 11.1706 9.00916 10.8633 9.68169C10.629 10.1946 10.3977 10.7092 10.1467 11.2138C9.96107 11.5867 9.72876 11.9317 9.36197 12.1579C9.01741 12.3704 8.65837 12.3473 8.28183 12.2419C7.65066 12.0652 7.14653 11.7046 6.77308 11.1836C6.46423 10.7527 6.27034 10.2586 6.10527 9.75063C5.83694 8.92465 5.70424 8.08557 5.73469 7.21806C5.76405 6.38099 6.21488 5.77585 7.01236 5.50133C7.4742 5.34229 7.9382 5.20495 8.43063 5.17985C8.55589 5.17342 8.67898 5.12617 8.83437 5.09046V4.88394C8.83662 3.77576 8.8274 2.66734 8.84754 1.55939C8.85428 1.18679 8.91958 0.812413 8.99193 0.445548C9.01424 0.332375 9.13012 0.213004 9.23485 0.145534C9.47739 -0.0107863 9.92389 0.091155 10.0858 0.325248C10.1449 0.410612 10.1999 0.511624 10.2155 0.611861C10.2567 0.876862 10.2963 1.14512 10.299 1.41244C10.311 2.5592 10.3093 3.70612 10.3126 4.85304V5.10038C10.4007 5.10712 10.4753 5.11781 10.55 5.11781C16.0531 5.11858 21.5561 5.11649 27.0592 5.12555C27.2916 5.12594 27.3301 4.97396 27.395 4.84227C27.7931 4.03542 28.1725 3.21942 28.575 2.41481C28.7295 2.10597 28.9279 1.81881 29.1077 1.52259C29.1909 1.38556 29.3163 1.32971 29.4753 1.3287C29.8494 1.32653 30.2235 1.31894 30.5976 1.31375C31.8857 1.29601 33.1736 1.27309 34.4617 1.26635C34.6599 1.26534 34.7793 1.14845 34.9047 1.05092C35.3435 0.709232 35.8102 0.412317 36.3208 0.199138C36.5727 0.0940211 36.8572 0.0347619 37.1305 0.0198116C37.6387 -0.00807509 38.1501 -0.00389209 38.6589 0.0160934ZM16.5068 1.73505C17.0159 1.73398 17.5301 1.79611 18.0327 1.88349C18.3908 1.94569 18.7548 2.05127 19.0235 2.33494C19.194 2.51504 19.2005 2.73674 18.9947 2.8802C18.7438 3.05519 18.4747 3.2174 18.1915 3.32972C17.8021 3.48418 17.3951 3.59759 16.9898 3.70681C16.7822 3.76274 16.5627 3.78187 16.3471 3.7993L16.3581 3.79842C16.3544 3.79871 16.3508 3.799 16.3471 3.7993L15.5505 3.85767L14.7535 3.91131L14.7513 3.877L14.4867 3.88031L14.2222 3.88295L13.9584 3.87397C13.3065 3.82827 12.6549 3.77374 12.0045 3.70937C11.6879 3.67799 11.3737 3.61982 11.0597 3.56598C11.0038 3.55638 10.9421 3.51904 10.9044 3.47589C10.7522 3.30207 10.7101 2.62186 10.8386 2.43053C10.8669 2.38816 10.9192 2.34292 10.9664 2.33517C11.162 2.30334 11.3604 2.28916 11.5568 2.26151C12.086 2.18699 12.614 2.10472 13.1436 2.03353C13.6245 1.969 14.1057 1.90239 14.5888 1.85955C15.2271 1.80292 15.8673 1.73638 16.5068 1.73505ZM73.8984 1.81056C74.4663 1.83891 75.0517 1.90127 75.5744 2.17905C75.6855 2.23808 75.7784 2.33127 75.8797 2.40873V2.64073C75.5528 3.08607 75.0721 3.27818 74.5673 3.42063C74.1615 3.53512 73.7497 3.62815 73.3408 3.73133C72.4299 3.96101 71.5032 3.87371 70.581 3.86271C70.2481 3.85876 69.9149 3.82468 69.5831 3.79238C69.1125 3.74652 68.642 3.69663 68.1735 3.63365C67.9998 3.61041 67.8304 3.55007 67.6619 3.49747C67.5117 3.45045 67.442 3.33635 67.4409 3.18166C67.4392 2.97561 67.4402 2.76955 67.4409 2.5635C67.4413 2.40982 67.5182 2.34095 67.6732 2.32561C68.1504 2.27828 68.6277 2.22909 69.1029 2.16488C69.6006 2.09764 70.0978 2.02289 70.5918 1.93249C71.6887 1.73178 72.796 1.75549 73.8984 1.81056ZM5.85386 1.79673C6.2806 1.814 6.70494 1.88767 7.13083 1.93113C7.47492 1.96629 7.81925 2.00317 8.16442 2.02106C8.3312 2.02966 8.38968 2.08768 8.38519 2.25376C8.37889 2.4893 8.37972 2.72501 8.38097 2.96879L8.3823 3.34149C8.23148 3.34149 8.10909 3.33204 7.98871 3.3432C7.53772 3.38503 7.08652 3.42779 6.63678 3.48155C6.22576 3.53066 5.81451 3.58287 5.4069 3.65398C4.77821 3.76355 4.14704 3.80621 3.51489 3.81768L3.0406 3.82099C2.56619 3.81956 2.09145 3.8056 1.617 3.79419C1.14455 3.7828 0.677369 3.68946 0.269682 3.41679C-0.140717 3.14241 -0.0318816 2.8816 0.25814 2.67229C0.693947 2.35771 1.19839 2.17475 1.71228 2.01262C2.41339 1.79138 3.13178 1.77481 3.85374 1.77457C4.52049 1.77442 5.18791 1.76977 5.85386 1.79673ZM60.224 1.77434L60.5957 1.77679C60.9674 1.78315 61.3391 1.79845 61.7105 1.79719C62.3914 1.79487 63.0733 1.83709 63.7532 1.8817C64.1409 1.90711 64.5264 1.97234 64.9108 2.0326C64.9615 2.04058 65.0369 2.12455 65.0383 2.17513C65.0455 2.42771 65.0457 2.6805 65.0451 2.9419L65.0442 3.34149C64.9433 3.34149 64.8666 3.33553 64.791 3.3425C64.3019 3.38727 63.8122 3.42771 63.3242 3.48379C62.9262 3.52957 62.5278 3.58109 62.1341 3.65491C61.379 3.79651 60.6164 3.81162 59.8529 3.81472L59.3916 3.81791L58.9302 3.81925C58.6226 3.81805 58.3154 3.81119 58.0093 3.78985C57.5684 3.75902 57.1591 3.58217 56.8256 3.27263C56.6258 3.08711 56.6088 2.97122 56.823 2.80088C57.0664 2.60745 57.3352 2.43642 57.6148 2.30047C58.0858 2.07126 58.5924 1.94716 59.1104 1.85939C59.481 1.79662 59.8524 1.77676 60.224 1.77434Z" fill="white"/>
</svg>
